<mxfile host="app.diagrams.net" modified="2021-02-08T09:26:21.109Z" agent="5.0 (Windows NT 10.0; Win64; x64) AppleWebKit/537.36 (KHTML, like Gecko) Chrome/88.0.4324.150 Safari/537.36" etag="6Kl23Y3_7X6YSL6-LpID" version="14.2.9" type="github">
  <diagram id="8FJ0bB70btWS82wDkIWX" name="Page-1">
    <mxGraphModel dx="2249" dy="794" grid="1" gridSize="10" guides="1" tooltips="1" connect="1" arrows="1" fold="1" page="1" pageScale="1" pageWidth="827" pageHeight="1169" math="0" shadow="0">
      <root>
        <mxCell id="0" />
        <mxCell id="1" parent="0" />
        <mxCell id="apnzIHP3aybxU7VDY7QM-1" value="Cards" style="rounded=0;whiteSpace=wrap;html=1;" parent="1" vertex="1">
          <mxGeometry x="140" y="150" width="120" height="60" as="geometry" />
        </mxCell>
        <mxCell id="apnzIHP3aybxU7VDY7QM-2" value="&lt;u&gt;CardNumber&lt;/u&gt;" style="ellipse;whiteSpace=wrap;html=1;" parent="1" vertex="1">
          <mxGeometry x="10" y="50" width="120" height="50" as="geometry" />
        </mxCell>
        <mxCell id="apnzIHP3aybxU7VDY7QM-3" value="CustomerName" style="ellipse;whiteSpace=wrap;html=1;" parent="1" vertex="1">
          <mxGeometry x="140" y="40" width="120" height="45" as="geometry" />
        </mxCell>
        <mxCell id="apnzIHP3aybxU7VDY7QM-6" value="" style="endArrow=none;html=1;entryX=0.5;entryY=1;entryDx=0;entryDy=0;exitX=0.183;exitY=0;exitDx=0;exitDy=0;exitPerimeter=0;" parent="1" source="apnzIHP3aybxU7VDY7QM-1" target="apnzIHP3aybxU7VDY7QM-2" edge="1">
          <mxGeometry width="50" height="50" relative="1" as="geometry">
            <mxPoint x="310" y="130" as="sourcePoint" />
            <mxPoint x="360" y="80" as="targetPoint" />
          </mxGeometry>
        </mxCell>
        <mxCell id="apnzIHP3aybxU7VDY7QM-7" value="" style="endArrow=none;html=1;entryX=0.5;entryY=1;entryDx=0;entryDy=0;exitX=0.5;exitY=0;exitDx=0;exitDy=0;" parent="1" source="apnzIHP3aybxU7VDY7QM-1" target="apnzIHP3aybxU7VDY7QM-3" edge="1">
          <mxGeometry width="50" height="50" relative="1" as="geometry">
            <mxPoint x="310" y="130" as="sourcePoint" />
            <mxPoint x="360" y="80" as="targetPoint" />
          </mxGeometry>
        </mxCell>
        <mxCell id="apnzIHP3aybxU7VDY7QM-8" value="CardTypes" style="rounded=0;whiteSpace=wrap;html=1;" parent="1" vertex="1">
          <mxGeometry x="490" y="150" width="120" height="60" as="geometry" />
        </mxCell>
        <mxCell id="apnzIHP3aybxU7VDY7QM-9" value="DateOfIssue" style="ellipse;whiteSpace=wrap;html=1;" parent="1" vertex="1">
          <mxGeometry x="-40" y="100" width="120" height="50" as="geometry" />
        </mxCell>
        <mxCell id="apnzIHP3aybxU7VDY7QM-10" value="" style="endArrow=none;html=1;entryX=0;entryY=0.25;entryDx=0;entryDy=0;" parent="1" source="apnzIHP3aybxU7VDY7QM-9" target="apnzIHP3aybxU7VDY7QM-1" edge="1">
          <mxGeometry width="50" height="50" relative="1" as="geometry">
            <mxPoint x="310" y="330" as="sourcePoint" />
            <mxPoint x="360" y="280" as="targetPoint" />
          </mxGeometry>
        </mxCell>
        <mxCell id="apnzIHP3aybxU7VDY7QM-11" value="ExpiredDate" style="ellipse;whiteSpace=wrap;html=1;" parent="1" vertex="1">
          <mxGeometry x="-40" y="160" width="120" height="50" as="geometry" />
        </mxCell>
        <mxCell id="apnzIHP3aybxU7VDY7QM-12" value="" style="endArrow=none;html=1;entryX=0;entryY=0.5;entryDx=0;entryDy=0;" parent="1" source="apnzIHP3aybxU7VDY7QM-11" target="apnzIHP3aybxU7VDY7QM-1" edge="1">
          <mxGeometry width="50" height="50" relative="1" as="geometry">
            <mxPoint x="310" y="330" as="sourcePoint" />
            <mxPoint x="360" y="280" as="targetPoint" />
          </mxGeometry>
        </mxCell>
        <mxCell id="apnzIHP3aybxU7VDY7QM-13" value="CardStatus" style="ellipse;whiteSpace=wrap;html=1;" parent="1" vertex="1">
          <mxGeometry x="-30" y="220" width="120" height="50" as="geometry" />
        </mxCell>
        <mxCell id="apnzIHP3aybxU7VDY7QM-14" value="" style="endArrow=none;html=1;entryX=0;entryY=0.75;entryDx=0;entryDy=0;exitX=1;exitY=0;exitDx=0;exitDy=0;" parent="1" source="apnzIHP3aybxU7VDY7QM-13" target="apnzIHP3aybxU7VDY7QM-1" edge="1">
          <mxGeometry width="50" height="50" relative="1" as="geometry">
            <mxPoint x="310" y="330" as="sourcePoint" />
            <mxPoint x="360" y="280" as="targetPoint" />
          </mxGeometry>
        </mxCell>
        <mxCell id="apnzIHP3aybxU7VDY7QM-15" value="CardTypesCode" style="ellipse;whiteSpace=wrap;html=1;fontStyle=4" parent="1" vertex="1">
          <mxGeometry x="490" y="60" width="120" height="52.5" as="geometry" />
        </mxCell>
        <mxCell id="apnzIHP3aybxU7VDY7QM-16" value="CardTypesName" style="ellipse;whiteSpace=wrap;html=1;" parent="1" vertex="1">
          <mxGeometry x="610" y="80" width="120" height="50" as="geometry" />
        </mxCell>
        <mxCell id="apnzIHP3aybxU7VDY7QM-17" value="" style="endArrow=none;html=1;exitX=0.5;exitY=0;exitDx=0;exitDy=0;" parent="1" source="apnzIHP3aybxU7VDY7QM-8" target="apnzIHP3aybxU7VDY7QM-15" edge="1">
          <mxGeometry width="50" height="50" relative="1" as="geometry">
            <mxPoint x="310" y="330" as="sourcePoint" />
            <mxPoint x="360" y="280" as="targetPoint" />
          </mxGeometry>
        </mxCell>
        <mxCell id="apnzIHP3aybxU7VDY7QM-18" value="" style="endArrow=none;html=1;entryX=0.333;entryY=0.97;entryDx=0;entryDy=0;entryPerimeter=0;exitX=1;exitY=0;exitDx=0;exitDy=0;" parent="1" source="apnzIHP3aybxU7VDY7QM-8" target="apnzIHP3aybxU7VDY7QM-16" edge="1">
          <mxGeometry width="50" height="50" relative="1" as="geometry">
            <mxPoint x="550" y="140" as="sourcePoint" />
            <mxPoint x="360" y="280" as="targetPoint" />
          </mxGeometry>
        </mxCell>
        <mxCell id="apnzIHP3aybxU7VDY7QM-19" value="CardTypesDescription" style="ellipse;whiteSpace=wrap;html=1;" parent="1" vertex="1">
          <mxGeometry x="640" y="140" width="130" height="50" as="geometry" />
        </mxCell>
        <mxCell id="apnzIHP3aybxU7VDY7QM-20" value="" style="endArrow=none;html=1;exitX=1;exitY=0.5;exitDx=0;exitDy=0;" parent="1" source="apnzIHP3aybxU7VDY7QM-8" target="apnzIHP3aybxU7VDY7QM-19" edge="1">
          <mxGeometry width="50" height="50" relative="1" as="geometry">
            <mxPoint x="310" y="330" as="sourcePoint" />
            <mxPoint x="360" y="280" as="targetPoint" />
          </mxGeometry>
        </mxCell>
        <mxCell id="apnzIHP3aybxU7VDY7QM-21" value="Have" style="rhombus;whiteSpace=wrap;html=1;" parent="1" vertex="1">
          <mxGeometry x="320" y="140" width="110" height="80" as="geometry" />
        </mxCell>
        <mxCell id="apnzIHP3aybxU7VDY7QM-26" value="" style="endArrow=none;html=1;entryX=0;entryY=0.5;entryDx=0;entryDy=0;exitX=1;exitY=0.5;exitDx=0;exitDy=0;" parent="1" source="apnzIHP3aybxU7VDY7QM-21" target="apnzIHP3aybxU7VDY7QM-8" edge="1">
          <mxGeometry width="50" height="50" relative="1" as="geometry">
            <mxPoint x="310" y="330" as="sourcePoint" />
            <mxPoint x="360" y="280" as="targetPoint" />
          </mxGeometry>
        </mxCell>
        <mxCell id="apnzIHP3aybxU7VDY7QM-32" value="1" style="edgeLabel;html=1;align=center;verticalAlign=middle;resizable=0;points=[];fontSize=14;" parent="apnzIHP3aybxU7VDY7QM-26" vertex="1" connectable="0">
          <mxGeometry x="0.525" relative="1" as="geometry">
            <mxPoint x="-6" y="-15" as="offset" />
          </mxGeometry>
        </mxCell>
        <mxCell id="apnzIHP3aybxU7VDY7QM-27" value="" style="endArrow=none;html=1;entryX=0;entryY=0.5;entryDx=0;entryDy=0;exitX=1;exitY=0.5;exitDx=0;exitDy=0;" parent="1" source="apnzIHP3aybxU7VDY7QM-1" target="apnzIHP3aybxU7VDY7QM-21" edge="1">
          <mxGeometry width="50" height="50" relative="1" as="geometry">
            <mxPoint x="310" y="330" as="sourcePoint" />
            <mxPoint x="360" y="280" as="targetPoint" />
          </mxGeometry>
        </mxCell>
        <mxCell id="apnzIHP3aybxU7VDY7QM-31" value="N" style="edgeLabel;html=1;align=center;verticalAlign=middle;resizable=0;points=[];fontSize=14;" parent="apnzIHP3aybxU7VDY7QM-27" vertex="1" connectable="0">
          <mxGeometry x="-0.4333" relative="1" as="geometry">
            <mxPoint y="-15" as="offset" />
          </mxGeometry>
        </mxCell>
        <mxCell id="dMuL6GvIcCYB4R016qpu-1" value="Users" style="rounded=0;whiteSpace=wrap;html=1;" vertex="1" parent="1">
          <mxGeometry x="30" y="370" width="120" height="60" as="geometry" />
        </mxCell>
        <mxCell id="dMuL6GvIcCYB4R016qpu-3" value="&lt;u&gt;UserName&lt;/u&gt;" style="ellipse;whiteSpace=wrap;html=1;" vertex="1" parent="1">
          <mxGeometry x="-150" y="300" width="120" height="45" as="geometry" />
        </mxCell>
        <mxCell id="dMuL6GvIcCYB4R016qpu-5" value="" style="endArrow=none;html=1;entryX=0.5;entryY=1;entryDx=0;entryDy=0;exitX=0;exitY=0.25;exitDx=0;exitDy=0;" edge="1" parent="1" source="dMuL6GvIcCYB4R016qpu-1" target="dMuL6GvIcCYB4R016qpu-3">
          <mxGeometry width="50" height="50" relative="1" as="geometry">
            <mxPoint x="290" y="400" as="sourcePoint" />
            <mxPoint x="340" y="350" as="targetPoint" />
          </mxGeometry>
        </mxCell>
        <mxCell id="dMuL6GvIcCYB4R016qpu-6" value="Password" style="ellipse;whiteSpace=wrap;html=1;" vertex="1" parent="1">
          <mxGeometry x="-170" y="385" width="120" height="50" as="geometry" />
        </mxCell>
        <mxCell id="dMuL6GvIcCYB4R016qpu-7" value="" style="endArrow=none;html=1;entryX=0;entryY=0.5;entryDx=0;entryDy=0;" edge="1" parent="1" source="dMuL6GvIcCYB4R016qpu-6" target="dMuL6GvIcCYB4R016qpu-1">
          <mxGeometry width="50" height="50" relative="1" as="geometry">
            <mxPoint x="290" y="600" as="sourcePoint" />
            <mxPoint x="340" y="550" as="targetPoint" />
          </mxGeometry>
        </mxCell>
        <mxCell id="dMuL6GvIcCYB4R016qpu-19" value="UserTypes" style="rounded=0;whiteSpace=wrap;html=1;" vertex="1" parent="1">
          <mxGeometry x="470" y="375" width="120" height="60" as="geometry" />
        </mxCell>
        <mxCell id="dMuL6GvIcCYB4R016qpu-20" value="UserTypesCode" style="ellipse;whiteSpace=wrap;html=1;fontStyle=4" vertex="1" parent="1">
          <mxGeometry x="470" y="285" width="120" height="52.5" as="geometry" />
        </mxCell>
        <mxCell id="dMuL6GvIcCYB4R016qpu-21" value="UserTypesName" style="ellipse;whiteSpace=wrap;html=1;" vertex="1" parent="1">
          <mxGeometry x="590" y="305" width="120" height="50" as="geometry" />
        </mxCell>
        <mxCell id="dMuL6GvIcCYB4R016qpu-22" value="" style="endArrow=none;html=1;exitX=0.5;exitY=0;exitDx=0;exitDy=0;" edge="1" parent="1" source="dMuL6GvIcCYB4R016qpu-19" target="dMuL6GvIcCYB4R016qpu-20">
          <mxGeometry width="50" height="50" relative="1" as="geometry">
            <mxPoint x="290" y="555" as="sourcePoint" />
            <mxPoint x="340" y="505" as="targetPoint" />
          </mxGeometry>
        </mxCell>
        <mxCell id="dMuL6GvIcCYB4R016qpu-23" value="" style="endArrow=none;html=1;entryX=0.333;entryY=0.97;entryDx=0;entryDy=0;entryPerimeter=0;exitX=1;exitY=0;exitDx=0;exitDy=0;" edge="1" parent="1" source="dMuL6GvIcCYB4R016qpu-19" target="dMuL6GvIcCYB4R016qpu-21">
          <mxGeometry width="50" height="50" relative="1" as="geometry">
            <mxPoint x="530" y="365" as="sourcePoint" />
            <mxPoint x="340" y="505" as="targetPoint" />
          </mxGeometry>
        </mxCell>
        <mxCell id="dMuL6GvIcCYB4R016qpu-24" value="UserTypesDescription" style="ellipse;whiteSpace=wrap;html=1;" vertex="1" parent="1">
          <mxGeometry x="620" y="365" width="130" height="50" as="geometry" />
        </mxCell>
        <mxCell id="dMuL6GvIcCYB4R016qpu-25" value="" style="endArrow=none;html=1;exitX=1;exitY=0.5;exitDx=0;exitDy=0;" edge="1" parent="1" source="dMuL6GvIcCYB4R016qpu-19" target="dMuL6GvIcCYB4R016qpu-24">
          <mxGeometry width="50" height="50" relative="1" as="geometry">
            <mxPoint x="290" y="555" as="sourcePoint" />
            <mxPoint x="340" y="505" as="targetPoint" />
          </mxGeometry>
        </mxCell>
        <mxCell id="dMuL6GvIcCYB4R016qpu-26" value="Have" style="rhombus;whiteSpace=wrap;html=1;" vertex="1" parent="1">
          <mxGeometry x="250" y="360" width="110" height="80" as="geometry" />
        </mxCell>
        <mxCell id="dMuL6GvIcCYB4R016qpu-29" value="" style="endArrow=none;html=1;entryX=-0.025;entryY=0.617;entryDx=0;entryDy=0;entryPerimeter=0;exitX=1;exitY=0.5;exitDx=0;exitDy=0;" edge="1" parent="1" source="dMuL6GvIcCYB4R016qpu-26" target="dMuL6GvIcCYB4R016qpu-19">
          <mxGeometry width="50" height="50" relative="1" as="geometry">
            <mxPoint x="330" y="340" as="sourcePoint" />
            <mxPoint x="380" y="290" as="targetPoint" />
          </mxGeometry>
        </mxCell>
        <mxCell id="dMuL6GvIcCYB4R016qpu-31" value="1" style="edgeLabel;html=1;align=center;verticalAlign=middle;resizable=0;points=[];fontSize=14;" vertex="1" connectable="0" parent="dMuL6GvIcCYB4R016qpu-29">
          <mxGeometry x="0.1979" y="-1" relative="1" as="geometry">
            <mxPoint x="2.2199999999999998" y="-10.18" as="offset" />
          </mxGeometry>
        </mxCell>
        <mxCell id="dMuL6GvIcCYB4R016qpu-30" value="" style="endArrow=none;html=1;exitX=1;exitY=0.5;exitDx=0;exitDy=0;entryX=0;entryY=0.5;entryDx=0;entryDy=0;" edge="1" parent="1" source="dMuL6GvIcCYB4R016qpu-1" target="dMuL6GvIcCYB4R016qpu-26">
          <mxGeometry width="50" height="50" relative="1" as="geometry">
            <mxPoint x="330" y="340" as="sourcePoint" />
            <mxPoint x="380" y="290" as="targetPoint" />
          </mxGeometry>
        </mxCell>
        <mxCell id="dMuL6GvIcCYB4R016qpu-33" value="N" style="edgeLabel;html=1;align=center;verticalAlign=middle;resizable=0;points=[];fontSize=13;" vertex="1" connectable="0" parent="dMuL6GvIcCYB4R016qpu-30">
          <mxGeometry x="-0.8" y="1" relative="1" as="geometry">
            <mxPoint y="-14" as="offset" />
          </mxGeometry>
        </mxCell>
      </root>
    </mxGraphModel>
  </diagram>
</mxfile>
